<?xml version="1.0" encoding="UTF-8" standalone="no"?>
<svg
   xmlns:dc="http://purl.org/dc/elements/1.1/"
   xmlns:cc="http://creativecommons.org/ns#"
   xmlns:rdf="http://www.w3.org/1999/02/22-rdf-syntax-ns#"
   xmlns:svg="http://www.w3.org/2000/svg"
   xmlns="http://www.w3.org/2000/svg"
   xmlns:sodipodi="http://sodipodi.sourceforge.net/DTD/sodipodi-0.dtd"
   xmlns:inkscape="http://www.inkscape.org/namespaces/inkscape"
   version="1.1"
   id="svg2"
   xml:space="preserve"
   width="816"
   height="1056"
   viewBox="0 0 816 1056"
   sodipodi:docname="Adolescentes.svg"
   inkscape:version="1.0.2 (e86c870879, 2021-01-15)"><metadata
     id="metadata8"><rdf:RDF><cc:Work
         rdf:about=""><dc:format>image/svg+xml</dc:format><dc:type
           rdf:resource="http://purl.org/dc/dcmitype/StillImage" /></cc:Work></rdf:RDF></metadata><defs
     id="defs6"><clipPath
       clipPathUnits="userSpaceOnUse"
       id="clipPath22"><path
         d="M 0,792 H 612 V 0 H 0 Z"
         id="path20" /></clipPath><clipPath
       clipPathUnits="userSpaceOnUse"
       id="clipPath94"><path
         d="M 0,792 H 612 V 0 H 0 Z"
         id="path92" /></clipPath></defs><sodipodi:namedview
     pagecolor="#ffffff"
     bordercolor="#666666"
     borderopacity="1"
     objecttolerance="10"
     gridtolerance="10"
     guidetolerance="10"
     inkscape:pageopacity="0"
     inkscape:pageshadow="2"
     inkscape:window-width="1366"
     inkscape:window-height="745"
     id="namedview4"
     inkscape:document-rotation="0"
     showgrid="false"
     inkscape:zoom="0.66157339"
     inkscape:cx="625.76213"
     inkscape:cy="592.60377"
     inkscape:window-x="-8"
     inkscape:window-y="-8"
     inkscape:window-maximized="1"
     inkscape:current-layer="g10" /><g
     id="g10"
     inkscape:groupmode="layer"
     inkscape:label="Adolescentes"
     transform="matrix(1.3333333,0,0,-1.3333333,0,1056)"><g
       id="g12"
       transform="translate(549.5254,365.6396)"
       style="fill:#c2ceff;fill-opacity:1"><path
         d="m 0,0 h -87.875 v -19.289 h -46.078 v -51.44 h -38.577 v -99.658 h -129.668 v 99.658 h -35.365 v 51.44 H -383.64 V 0 h -90.015 v 124.308 h 90.015 v 21.429 h 46.077 v 21.435 h 35.365 V 297.909 H -172.53 V 167.172 h 38.577 v -21.435 h 46.078 V 124.308 H 0 Z m -55.727,138.238 v 26.791 h -47.148 v 30.903 h -48.226 V 318.699 H -324.702 V 195.932 h -42.022 v -30.903 h -55.495 V 138.238 H -502.06 V -25.72 h 79.841 v -26.791 h 55.495 v -41.793 h 42.022 v -112.833 h 173.601 v 112.833 h 48.226 v 41.793 h 47.148 v 26.791 h 83.789 v 163.958 z"
         style="fill:#c2ceff;fill-opacity:1;fill-rule:nonzero;stroke:none"
         id="path14" /></g><path
       d="m 182.5625,417.1357 c 0,72.563 58.827,131.39 131.393,131.39 72.567,0 131.391,-58.827 131.391,-131.39 0,-72.566 -58.824,-131.391 -131.391,-131.391 -72.566,0 -131.393,58.825 -131.393,131.391"
       style="fill:#c2ceff;fill-opacity:1;fill-rule:nonzero;stroke:none"
       id="path26" /><g
       id="g32"
       transform="translate(194.7085,417.8496)"><path
         d="m 0,0 c 0,65.95 53.466,119.416 119.417,119.416 65.949,0 119.416,-53.466 119.416,-119.416 0,-65.95 -53.467,-119.416 -119.416,-119.416 C 53.466,-119.416 0,-65.95 0,0 Z"
         style="fill:none;stroke:#fdfdfd;stroke-width:1;stroke-linecap:butt;stroke-linejoin:miter;stroke-miterlimit:10;stroke-dasharray:none;stroke-opacity:1"
         id="path34" /></g><g
       id="g36"
       transform="translate(313.8369,500.1562)"
       style="fill:#000414;fill-opacity:1"><path
         d="m 0,0 -83.524,-52.153 25.006,-91.451 117.17,-7.144 20.003,97.88 z"
         style="fill:#000414;fill-opacity:1;fill-rule:nonzero;stroke:none"
         id="path38" /></g><g
       id="g40"
       transform="translate(249.9595,342.6396)"><path
         d="m 0,0 -25.007,-6.427 -6.428,22.386 22.86,6.189 c 5.478,1.429 7.862,-0.952 7.862,-0.952 l 5,-16.431 C 5.716,0.243 0,0 0,0 m 23.34,3.336 -5.715,23.575 c 0,0 -1.192,13.1 -19.291,7.86 l -51.678,-12.144 12.382,-48.583 51.68,12.145 c 0,0 14.529,3.333 12.622,17.147"
         style="fill:#ffffff;fill-opacity:1;fill-rule:nonzero;stroke:none"
         id="path42" /></g><path
       d="m 278.301,381.935 h 17.384 v -48.818 h -17.384 z"
       style="fill:#000414;fill-opacity:1;fill-rule:nonzero;stroke:#000414;stroke-width:14;stroke-linecap:butt;stroke-linejoin:miter;stroke-miterlimit:10;stroke-dasharray:none;stroke-opacity:1"
       id="path48" /><path
       d="m 249.9595,342.6396 -25.007,-6.427 -6.428,22.386 22.86,6.189 c 5.478,1.429 7.862,-0.952 7.862,-0.952 l 5,-16.431 c 1.429,-4.522 -4.287,-4.765 -4.287,-4.765 z m 23.34,3.336 -5.715,23.575 c 0,0 -1.192,13.1 -19.291,7.86 l -51.678,-12.144 12.382,-48.583 51.68,12.145 c 0,0 14.529,3.333 12.622,17.147 z"
       style="fill:#000414;stroke:#000414;stroke-width:14;stroke-linecap:butt;stroke-linejoin:miter;stroke-miterlimit:10;stroke-dasharray:none;stroke-opacity:1;fill-opacity:1"
       id="path46" /><g
       id="g50"
       transform="translate(362.8447,367.1699)"><path
         d="m 0,0 v 13.336 h -40.727 -15.954 -1.427 v -49.295 h 17.381 v 0.086 l 39.536,-0.086 0.024,10.214 -39.56,0.088 v 7.617 l 40.234,-0.09 0.022,10.22 -40.256,0.09 V 0 Z"
         style="fill:#ffffff;fill-opacity:1;fill-rule:nonzero;stroke:none"
         id="path52" /></g><g
       id="g54"
       transform="translate(362.8447,367.1699)"
       style="stroke:#000414;stroke-opacity:1;fill:#000414;fill-opacity:1"><path
         d="m 0,0 v 13.336 h -40.727 -15.954 -1.427 v -49.295 h 17.381 v 0.086 l 39.536,-0.086 0.024,10.214 -39.56,0.088 v 7.617 l 40.234,-0.09 0.022,10.22 -40.256,0.09 V 0 Z"
         style="fill:#000414;stroke:#000414;stroke-width:14;stroke-linecap:butt;stroke-linejoin:miter;stroke-miterlimit:10;stroke-dasharray:none;stroke-opacity:1;fill-opacity:1"
         id="path56" /></g><g
       id="g58"
       transform="translate(416.5654,344.9756)"><path
         d="m 0,0 13.138,-6.085 c 0,0 9.826,10.361 0,18.22 0,0 -17.682,10.719 -41.081,17.679 0,0 -11.786,3.219 -16.433,-8.213 0,0 -13.216,-25.008 -6.963,-30.009 0,0 16.252,-10.833 37.862,-19.884 0,0 13.933,-6.37 18.042,0.775 l 5,10.895 -13.929,6.964 c 0,0 -3.138,-11.146 -8.712,-7.18 L -34.55,-6.799 c 0,0 -1.787,1.85 -0.178,6.46 l 6.963,15.509 c 0,0 1.609,3.395 4.286,2.682 L -0.791,7.848 C -0.791,7.848 3.296,6.802 0,0"
         style="fill:#ffffff;fill-opacity:1;fill-rule:nonzero;stroke:none"
         id="path60" /></g><g
       id="g62"
       transform="translate(416.5654,344.9756)"
       style="fill:#000414;fill-opacity:1;opacity:1;stroke:#000414;stroke-opacity:1"><path
         d="m 0,0 13.138,-6.085 c 0,0 9.826,10.361 0,18.22 0,0 -17.682,10.719 -41.081,17.679 0,0 -11.786,3.219 -16.433,-8.213 0,0 -13.216,-25.008 -6.963,-30.009 0,0 16.252,-10.833 37.862,-19.884 0,0 13.933,-6.37 18.042,0.775 l 5,10.895 -13.929,6.964 c 0,0 -3.138,-11.146 -8.712,-7.18 L -34.55,-6.799 c 0,0 -1.787,1.85 -0.178,6.46 l 6.963,15.509 c 0,0 1.609,3.395 4.286,2.682 L -0.791,7.848 C -0.791,7.848 3.296,6.802 0,0 Z"
         style="fill:#000414;stroke:#000414;stroke-width:14;stroke-linecap:butt;stroke-linejoin:miter;stroke-miterlimit:10;stroke-dasharray:none;stroke-opacity:1;fill-opacity:1"
         id="path64" /></g><g
       id="g80"
       transform="translate(481.9189,307.4639)"
       style="fill:#c2ceff;fill-opacity:1"><path
         d="M 0,0 H -51.44 V 17.628 H -290.068 V 0 h -50.961 l 15.239,-30.604 -15.239,-29.41 56.202,-1.191 1.19,14.529 22.863,-13.338 v 15.481 l -0.639,1.193 H -79.62 l -0.637,-1.193 v -15.481 l 22.861,13.338 1.191,-14.529 56.205,1.191 -15.243,29.41 z"
         style="fill:#c2ceff;fill-opacity:1;fill-rule:nonzero;stroke:none"
         id="path82" /></g><g
       id="g66"
       transform="translate(247.1445,341.8193)"
       style="fill:#c2ceff;fill-opacity:1"><path
         d="m 0,0 -25.004,-6.431 -6.431,22.388 22.862,6.189 c 5.478,1.43 7.858,-0.952 7.858,-0.952 L 4.287,4.764 C 5.715,0.237 0,0 0,0 M 23.34,3.334 17.624,26.91 c 0,0 -1.19,13.097 -19.292,7.86 l -51.677,-12.143 12.384,-48.585 51.678,12.145 c 0,0 14.528,3.334 12.623,17.147"
         style="fill:#c2ceff;fill-opacity:1;fill-rule:nonzero;stroke:none"
         id="path68" /></g><path
       d="M 275.486,381.114 H 292.87 V 332.292 H 275.486 Z"
       style="fill:#c2ceff;fill-opacity:1;fill-rule:nonzero;stroke:none"
       id="path70" /><g
       id="g72"
       transform="translate(360.0303,366.3477)"
       style="fill:#c2ceff;fill-opacity:1"><path
         d="m 0,0 v 13.338 h -40.728 -15.953 -1.43 v -49.299 h 17.383 v 0.089 l 39.535,-0.089 0.023,10.216 -39.558,0.09 v 7.615 l 40.234,-0.088 0.022,10.216 -40.256,0.088 V 0 Z"
         style="fill:#c2ceff;fill-opacity:1;fill-rule:nonzero;stroke:none"
         id="path74" /></g><g
       id="g76"
       transform="translate(413.75,344.1533)"
       style="fill:#c2ceff;fill-opacity:1"><path
         d="m 0,0 13.139,-6.085 c 0,0 9.825,10.358 0,18.218 0,0 -17.683,10.718 -41.082,17.682 0,0 -11.786,3.215 -16.433,-8.215 0,0 -13.216,-25.006 -6.965,-30.007 0,0 16.254,-10.834 37.866,-19.885 0,0 13.933,-6.372 18.04,0.772 l 5.001,10.896 -13.93,6.968 c 0,0 -3.138,-11.148 -8.712,-7.182 l -21.474,10.04 c 0,0 -1.787,1.849 -0.179,6.461 l 6.964,15.506 c 0,0 1.609,3.394 4.286,2.68 L -0.791,7.847 C -0.791,7.847 3.296,6.799 0,0"
         style="fill:#c2ceff;fill-opacity:1;fill-rule:nonzero;stroke:none"
         id="path78" /></g><g
       aria-label="ADOL"
       transform="matrix(1,0,0,-1,211.958,268.1719)"
       id="text86"
       style="font-variant:normal;font-weight:bold;font-stretch:normal;font-size:71.5343px;font-family:Couture;-inkscape-font-specification:Couture-Bold;writing-mode:lr-tb;fill:#000414;fill-opacity:1;fill-rule:nonzero;stroke:none;opacity:1"><path
         d="M 38.212171,-9.5006495 H 17.184998 L 13.866757,0 H 0.34928858 L 19.664947,-52.148785 H 35.697293 L 55.012952,0 H 41.495484 Z M 20.538169,-19.175943 h 14.285903 l -7.125487,-20.747742 z"
         id="path104"
         style="fill:#000414;fill-opacity:1" /><path
         d="m 77.742416,-41.984488 v 31.82019 h 4.820182 q 8.243211,0 12.574389,-4.086676 4.366107,-4.086677 4.366107,-11.875812 0,-7.754207 -4.331178,-11.805954 -4.331178,-4.051748 -12.609318,-4.051748 z M 64.294805,-52.148785 h 14.181117 q 11.875812,0 17.674002,1.711514 5.833116,1.676585 9.989656,5.728332 3.66753,3.527815 5.4489,8.138424 1.78137,4.61061 1.78137,10.443729 0,5.902977 -1.78137,10.548515 -1.78137,4.61061 -5.4489,8.1384242 -4.19147,4.0517475 -10.059514,5.7632616 Q 90.212018,0 78.475922,0 H 64.294805 Z"
         id="path106"
         style="fill:#000414;fill-opacity:1" /><path
         d="m 141.12321,-43.346713 q -6.14748,0 -9.53558,4.540751 -3.3881,4.540752 -3.3881,12.783963 0,8.208281 3.3881,12.749033 3.3881,4.5407514 9.53558,4.5407514 6.1824,0 9.5705,-4.5407514 3.3881,-4.540752 3.3881,-12.749033 0,-8.243211 -3.3881,-12.783963 -3.3881,-4.540751 -9.5705,-4.540751 z m 0,-9.745152 q 12.57439,0 19.69987,7.195345 7.12549,7.195345 7.12549,19.874521 0,12.644246 -7.12549,19.8395911 -7.12548,7.1953448 -19.69987,7.1953448 -12.53946,0 -19.69988,-7.1953448 -7.12549,-7.1953451 -7.12549,-19.8395911 0,-12.679176 7.12549,-19.874521 7.16042,-7.195345 19.69988,-7.195345 z"
         id="path108"
         style="fill:#000414;fill-opacity:1" /><path
         d="m 172.9554,-52.148785 h 13.44761 v 41.984487 h 23.61191 V 0 H 172.9554 Z"
         id="path110"
         style="fill:#000414;fill-opacity:1" /></g><g
       id="g88"
       style="fill:#c2ceff;fill-opacity:1;stroke:#000414;stroke-opacity:1"><g
         id="g90"
         clip-path="url(#clipPath94)"
         style="fill:#c2ceff;fill-opacity:1;stroke:#000414;stroke-opacity:1"><g
           id="g96"
           transform="translate(334.4834,406.9219)"
           style="fill:#c2ceff;fill-opacity:1;stroke:#000414;stroke-opacity:1"><path
             d="m 0,0 h -1.965 c 0,0 0.716,7.511 -4.11,9.826 0,0 -2.797,1.019 3.219,5.175 0,0 1.246,4.108 -1.429,6.612 0,0 6.963,5.535 8.929,2.678 C 4.644,24.291 -0.716,7.322 0,0 m -25.183,11.787 c 2.675,-3.573 0,-1.964 0,-1.964 -3.572,8.037 0,17.144 0,17.144 l 4.104,-2.858 c -5.178,-2.677 -4.104,-12.322 -4.104,-12.322 m -6.967,-7.5 c 0,0 -3.93,5.356 -1.607,5.536 2.321,0.179 1.607,-5.536 1.607,-5.536 m -27.241,5.536 c 0,0 -3.3,13.039 -3.3,17.144 h 6.608 c 0,0 0.891,-14.287 -3.308,-17.144 m 89.314,29.292 c 0,0 3.654,12.504 -8.133,15.359 0,0 -2.143,-1.784 -2.322,0 0,0 -1.429,2.503 -4.284,0 0,0 -1.609,-1.347 -2.859,1.113 0,0 -6.968,-3.076 -7.145,-10.399 0,0 -4.467,9.465 -14.467,0.895 0,0 0,3.212 -8.573,-1.966 0,0 2.068,13.038 -9.057,10.357 0,0 -7.378,7.505 -12.38,-9.106 l -1.605,0.176 c 0,0 0.714,12.668 -10.361,10.621 0,0 -1.071,-2.046 -4.644,-0.617 0,0 -8.214,0.535 -4.641,-12.861 0,0 -0.183,-3.572 -5.895,5.539 0,0 -4.107,3.927 -7.86,-0.895 0,0 -10.716,0.181 -5.36,-12.681 0,0 -2.32,-2.681 -0.713,-3.749 0,0 7.322,-1.428 4.644,-3.573 0,0 -5.714,-3.037 -7.68,-1.074 0,0 -3.395,2.608 -2.5,-0.66 0,0 -6.431,-0.947 -2.678,-6.125 0,0 0.176,-2.144 14.287,1.428 0,0 3.216,-12.324 0,-21.077 0,0 -5.714,-8.395 -0.895,-11.79 0,0 7.144,-2.498 6.79,6.968 0,0 -0.537,8.214 1.965,12.862 0,0 -0.895,-10.717 1.247,-12.146 0,0 2.681,-6.609 10.362,-3.573 0,0 4.106,1.605 -2.5,7.144 l 5.715,11.253 0.891,-15.362 c 0,0 -4.464,-7.322 1.609,-8.213 0,0 7.856,-1.253 4.107,7.856 l 1.013,32.687 3.452,0.536 c 0,0 -4.104,-17.324 1.789,-28.937 0,0 2.678,-4.82 -2.681,-6.251 0,0 -2.499,-6.966 4.464,-4.287 0,0 5.362,2.502 6.075,4.823 0,0 2.322,-9.109 8.038,-4.107 0,0 1.783,1.669 3.749,-2.382 0,0 8.038,-2.62 3.75,7.384 0,0 -0.159,2.142 1.26,1.429 v 5 c 0,0 5.17,-5 8.744,-6.429 l 3.928,-7.694 c 0,0 11.253,-3.026 7.862,5.192 0,0 1.608,13.573 3.391,13.219 0,0 2.503,-10.361 4.286,-10.898 0,0 0.36,-11.074 8.576,-0.714 0,0 3.749,11.431 -4.111,8.217 l -2.498,11.967 1.07,6.964 c 0,0 4.465,-9.107 8.218,-10.358 0,0 2.858,-1.429 4.465,1.607 0,0 0.715,0.893 -1.787,3.214 0,0 5.182,2.859 -3.392,3.573 0,0 -1.608,8.574 -6.252,12.327 0,0 9.298,1.068 11.526,8.214"
             style="fill:#c2ceff;fill-opacity:1;fill-rule:nonzero;stroke:#000414;stroke-opacity:1"
             id="path98" /></g><g
           id="g100"
           transform="translate(334.4834,406.9219)"
           style="fill:#c2ceff;fill-opacity:1;stroke:#000414;stroke-opacity:1"><path
             d="m 0,0 h -1.965 c 0,0 0.716,7.511 -4.11,9.826 0,0 -2.797,1.019 3.219,5.175 0,0 1.246,4.108 -1.429,6.612 0,0 6.963,5.535 8.929,2.678 C 4.644,24.291 -0.716,7.322 0,0 Z m -25.183,11.787 c 2.675,-3.573 0,-1.964 0,-1.964 -3.572,8.037 0,17.144 0,17.144 l 4.104,-2.858 c -5.178,-2.677 -4.104,-12.322 -4.104,-12.322 z m -6.967,-7.5 c 0,0 -3.93,5.356 -1.607,5.536 2.321,0.179 1.607,-5.536 1.607,-5.536 z m -27.241,5.536 c 0,0 -3.3,13.039 -3.3,17.144 h 6.608 c 0,0 0.891,-14.287 -3.308,-17.144 z m 89.314,29.292 c 0,0 3.654,12.504 -8.133,15.359 0,0 -2.143,-1.784 -2.322,0 0,0 -1.429,2.503 -4.284,0 0,0 -1.609,-1.347 -2.859,1.113 0,0 -6.968,-3.076 -7.145,-10.399 0,0 -4.467,9.465 -14.467,0.895 0,0 0,3.212 -8.573,-1.966 0,0 2.068,13.038 -9.057,10.357 0,0 -7.378,7.505 -12.38,-9.106 l -1.605,0.176 c 0,0 0.714,12.668 -10.361,10.621 0,0 -1.071,-2.046 -4.644,-0.617 0,0 -8.214,0.535 -4.641,-12.861 0,0 -0.183,-3.572 -5.895,5.539 0,0 -4.107,3.927 -7.86,-0.895 0,0 -10.716,0.181 -5.36,-12.681 0,0 -2.32,-2.681 -0.713,-3.749 0,0 7.322,-1.428 4.644,-3.573 0,0 -5.714,-3.037 -7.68,-1.074 0,0 -3.395,2.608 -2.5,-0.66 0,0 -6.431,-0.947 -2.678,-6.125 0,0 0.176,-2.144 14.287,1.428 0,0 3.216,-12.324 0,-21.077 0,0 -5.714,-8.395 -0.895,-11.79 0,0 7.144,-2.498 6.79,6.968 0,0 -0.537,8.214 1.965,12.862 0,0 -0.895,-10.717 1.247,-12.146 0,0 2.681,-6.609 10.362,-3.573 0,0 4.106,1.605 -2.5,7.144 l 5.715,11.253 0.891,-15.362 c 0,0 -4.464,-7.322 1.609,-8.213 0,0 7.856,-1.253 4.107,7.856 l 1.013,32.687 3.452,0.536 c 0,0 -4.104,-17.324 1.789,-28.937 0,0 2.678,-4.82 -2.681,-6.251 0,0 -2.499,-6.966 4.464,-4.287 0,0 5.362,2.502 6.075,4.823 0,0 2.322,-9.109 8.038,-4.107 0,0 1.783,1.669 3.749,-2.382 0,0 8.038,-2.62 3.75,7.384 0,0 -0.159,2.142 1.26,1.429 v 5 c 0,0 5.17,-5 8.744,-6.429 l 3.928,-7.694 c 0,0 11.253,-3.026 7.862,5.192 0,0 1.608,13.573 3.391,13.219 0,0 2.503,-10.361 4.286,-10.898 0,0 0.36,-11.074 8.576,-0.714 0,0 3.749,11.431 -4.111,8.217 l -2.498,11.967 1.07,6.964 c 0,0 4.465,-9.107 8.218,-10.358 0,0 2.858,-1.429 4.465,1.607 0,0 0.715,0.893 -1.787,3.214 0,0 5.182,2.859 -3.392,3.573 0,0 -1.608,8.574 -6.252,12.327 0,0 9.298,1.068 11.526,8.214 z"
             style="fill:#c2ceff;stroke:#000414;stroke-width:1;stroke-linecap:butt;stroke-linejoin:miter;stroke-miterlimit:10;stroke-dasharray:none;stroke-opacity:1;fill-opacity:1"
             id="path102" /></g></g></g></g></svg>
